<svg width="431" height="431" viewBox="0 0 431 431" fill="none" xmlns="http://www.w3.org/2000/svg">
<path fill-rule="evenodd" clip-rule="evenodd" d="M329.828 32.8897L223.156 0.276809L114.469 25.3692L32.8897 101.443L0.276811 208.115L25.3692 316.802L101.443 398.382L208.115 430.995L316.802 405.902L398.382 329.828L430.995 223.156L405.902 114.469L329.828 32.8897ZM284.498 151.402L194.448 123.871L125.581 188.091L146.763 279.842L236.813 307.373L305.68 243.153L284.498 151.402ZM128.68 80.204L281.428 129.383L273.249 93.9588L121.363 48.5087L47.2208 118.648L31.8798 171.285L128.68 80.204ZM173.407 113.881L54.4431 221.575L84.9216 350.947L47.0073 311.343L23.3355 212.064L138.64 103.252L173.407 113.881ZM143.214 358.405L109.43 201.533L82.841 226.327L119.423 380.59L217.237 409.729L270.492 396.696L143.214 358.405ZM152.283 302.747L305.031 351.926L401.831 260.845L386.49 313.481L312.348 383.621L160.461 338.171L152.283 302.747ZM376.416 212.971L257.452 320.664L292.219 331.294L407.524 222.481L383.852 123.203L345.938 83.5986L376.416 212.971ZM326.517 229.648L292.733 72.7758L165.454 34.4848L218.71 21.4522L316.523 50.5911L353.106 204.854L326.517 229.648Z" fill="url(#paint0_linear_80_99)"/>
<path fill-rule="evenodd" clip-rule="evenodd" d="M329.828 32.8897L223.156 0.276809L114.469 25.3692L32.8897 101.443L0.276811 208.115L25.3692 316.802L101.443 398.382L208.115 430.995L316.802 405.902L398.382 329.828L430.995 223.156L405.902 114.469L329.828 32.8897ZM284.498 151.402L194.448 123.871L125.581 188.091L146.763 279.842L236.813 307.373L305.68 243.153L284.498 151.402ZM128.68 80.204L281.428 129.383L273.249 93.9588L121.363 48.5087L47.2208 118.648L31.8798 171.285L128.68 80.204ZM173.407 113.881L54.4431 221.575L84.9216 350.947L47.0073 311.343L23.3355 212.064L138.64 103.252L173.407 113.881ZM143.214 358.405L109.43 201.533L82.841 226.327L119.423 380.59L217.237 409.729L270.492 396.696L143.214 358.405ZM152.283 302.747L305.031 351.926L401.831 260.845L386.49 313.481L312.348 383.621L160.461 338.171L152.283 302.747ZM376.416 212.971L257.452 320.664L292.219 331.294L407.524 222.481L383.852 123.203L345.938 83.5986L376.416 212.971ZM326.517 229.648L292.733 72.7758L165.454 34.4848L218.71 21.4522L316.523 50.5911L353.106 204.854L326.517 229.648Z" fill="black" fill-opacity="0.2"/>
<defs>
<linearGradient id="paint0_linear_80_99" x1="3.44233" y1="51.0017" x2="411.026" y2="364.43" gradientUnits="userSpaceOnUse">
<stop stop-color="#0BE98C"/>
<stop offset="0.408854" stop-color="#17BCA4"/>
<stop offset="1" stop-color="#2F66D1"/>
</linearGradient>
</defs>
</svg>
