<svg width="236" height="70" viewBox="0 0 236 70" fill="none" xmlns="http://www.w3.org/2000/svg">
<path d="M33.7998 34.7998C34.4353 34.7998 35.0529 35.0115 35.5547 35.4014C35.824 35.6107 36.0541 35.867 36.2334 36.1572L38.1191 39.21L40.7061 43.1055C40.7148 43.1186 40.7256 43.1303 40.7383 43.1396C40.7611 43.1563 40.7891 43.165 40.8174 43.165H49.1152C49.3554 43.165 49.5857 43.0679 49.752 42.8945C49.7934 42.8513 49.8304 42.8037 49.8623 42.7529L53.166 37.4893L53.1787 37.4688L53.1924 37.4482L53.2754 37.3281L53.415 37.1494C53.763 36.756 54.2655 36.5264 54.7979 36.5264L55.0283 36.541C55.4853 36.5985 55.9046 36.8251 56.2031 37.1758L56.3418 37.3613L57.1094 38.5322L57.125 38.5566L57.1396 38.5811L59.3271 42.2988L59.332 42.3076L59.3359 42.3154L61.5234 46.166L61.5283 46.1738L63.2441 49.2529C63.3838 49.5035 63.457 49.7854 63.457 50.0723C63.457 50.671 63.1394 51.2248 62.6221 51.5264L62.3936 51.6592C62.0662 51.8499 61.6943 51.9511 61.3154 51.9512H37.1123C36.5153 51.9512 35.9308 51.7776 35.4297 51.4531C35.0505 51.2075 34.7292 50.8819 34.4893 50.499L32.7979 47.7998L32.7852 47.7793L32.7734 47.7588L30.7236 44.1748L28.0049 39.6846L27.9922 39.665L27.9814 39.6445L27.1748 38.1895C26.9771 37.8326 26.8731 37.4314 26.873 37.0234V36.7158C26.8731 35.9822 27.2923 35.3127 27.9521 34.9922L28.1523 34.9092C28.3564 34.8373 28.5716 34.7998 28.7891 34.7998H33.7998Z" fill="#D4AF37" stroke="#353535" stroke-width="2.41161"/>
<path d="M43.5742 1.47168C43.9922 1.47168 44.4053 1.56641 44.7812 1.74902C45.0457 1.87748 45.2881 2.04807 45.499 2.25293L45.6572 2.40625C45.8534 2.59682 46.0298 2.80674 46.1846 3.03223L46.8398 3.9873L46.8672 4.02637L46.8916 4.06836L52.084 13.0957L58.2578 23.7861C58.4385 24.099 58.5342 24.4541 58.5342 24.8154C58.5342 25.6465 58.0338 26.3964 57.2666 26.7158L57.0557 26.8037C56.7632 26.9255 56.4487 26.9883 56.1318 26.9883H51.1719C50.7641 26.9882 50.3648 26.8701 50.0225 26.6484C49.7401 26.4656 49.5053 26.2175 49.3379 25.9258L37 4.42969C36.8116 4.10123 36.7119 3.72927 36.7119 3.35059V3.1377C36.7119 2.68776 36.8942 2.25698 37.2168 1.94336L37.3389 1.83594C37.6327 1.60136 37.9988 1.4717 38.3779 1.47168H43.5742Z" fill="#D4AF37" stroke="#353535" stroke-width="2.41161"/>
<path d="M61.0154 58.61C60.8052 58.9783 60.5097 59.2943 60.1533 59.5318C59.9085 59.6948 59.6383 59.8186 59.3544 59.8977L59.1287 59.9603C58.8651 60.0337 58.5945 60.0818 58.322 60.1036L57.1384 60.1981L57.0914 60.2016L57.0442 60.2016L46.3985 60.2373L33.7783 60.2996C33.4201 60.3013 33.0683 60.2144 32.7561 60.0464C32.0211 59.6506 31.6012 58.8621 31.6871 58.0393L31.7066 57.8513C31.7405 57.5283 31.842 57.2142 32.0045 56.9295L34.3988 52.7335C34.6057 52.3708 34.9185 52.0754 35.296 51.8861C35.5955 51.7359 35.9264 51.657 36.2611 51.6562L61.6047 51.5948C61.9827 51.5939 62.3536 51.6866 62.6831 51.8639L62.8851 51.9727C63.2702 52.1801 63.5544 52.5291 63.6767 52.9434L63.7151 53.1026C63.7853 53.4785 63.7198 53.8704 63.5263 54.2096L61.0154 58.61Z" fill="#D4AF37" stroke="#353535" stroke-width="2.41161"/>
<path d="M35.5947 3.07031C36.1819 3.1093 36.7186 3.41789 37.0469 3.90625L37.1133 4.0127L49.3926 25.1758C49.6511 25.6213 49.7871 26.1275 49.7871 26.6426C49.7871 27.1637 49.648 27.6759 49.3838 28.125L41.5234 41.4873C41.2424 41.9651 40.7291 42.2588 40.1748 42.2588C39.6206 42.2587 39.1082 41.9649 38.8271 41.4873L35.8525 36.4316C35.611 36.0211 35.4834 35.5525 35.4834 35.0762C35.4835 34.6019 35.61 34.1359 35.8496 33.7266L39.5332 27.4336C39.5457 27.4123 39.5564 27.3896 39.5645 27.3662C39.5778 27.3273 39.584 27.2863 39.584 27.2451V26.9297C39.5839 26.5522 39.4898 26.1804 39.3096 25.8486L37.1543 21.8828L35.5244 19.2793C35.4425 19.1485 35.3326 19.037 35.2031 18.9531C35.0802 18.8735 34.9415 18.8203 34.7969 18.7969L34.6738 18.7773C34.5864 18.7632 34.4977 18.7559 34.4092 18.7559H28.7178C28.246 18.7558 27.7846 18.6187 27.3887 18.3623L27.3467 18.3359C27.2402 18.267 27.1407 18.187 27.0498 18.0986L27 18.0518C26.699 17.7593 26.5126 17.3708 26.4707 16.957L26.4619 16.7783L26.4658 16.6582C26.4847 16.3785 26.5701 16.1067 26.7148 15.8652L33.8311 3.99707L33.8984 3.8916C33.9691 3.78945 34.0494 3.69413 34.1387 3.60742L34.1436 3.60352L34.2812 3.48145C34.6169 3.21334 35.0356 3.06543 35.4688 3.06543L35.5947 3.07031Z" fill="#D4AF37" stroke="#353535" stroke-width="2.41161"/>
<path d="M37.4673 26.4395C37.985 26.4352 38.4752 26.656 38.814 27.0381L38.9497 27.2119L39.021 27.3252C39.1782 27.5959 39.2612 27.9041 39.2612 28.2188V28.3975C39.2612 28.8097 39.1533 29.2149 38.9478 29.5723L36.5923 33.667C36.4958 33.8346 36.3842 33.9929 36.2583 34.1396C35.669 34.8266 34.8089 35.2216 33.9038 35.2217H26.6118C26.3392 35.2218 26.0752 35.3177 25.8657 35.4922C25.769 35.5727 25.6858 35.6683 25.6196 35.7754L21.7456 42.0479L21.5415 42.4453C21.4193 42.6828 21.355 42.9458 21.355 43.2129C21.355 43.5035 21.4312 43.7893 21.5747 44.042L23.3853 47.2305L23.3882 47.2354L24.1841 48.6533L24.2993 48.8213C24.5181 49.1401 24.6362 49.5176 24.6362 49.9043C24.6362 50.5924 24.2671 51.2236 23.6782 51.5635L23.5571 51.627C23.2966 51.7535 23.0104 51.8203 22.7202 51.8203H9.0542C8.15893 51.8201 7.42219 51.1395 7.3335 50.2676L7.32471 50.0908L7.33936 49.8643C7.36887 49.6404 7.44269 49.4235 7.55615 49.2266L19.6519 28.2354L19.6753 28.1943L19.7017 28.1553L20.063 27.6289C20.3029 27.2793 20.6298 26.9978 21.0112 26.8125C21.3379 26.6539 21.696 26.5705 22.0591 26.5674L37.4673 26.4395Z" fill="#D4AF37" stroke="#353535" stroke-width="2.41161"/>
<path d="M37.4673 26.4395C37.985 26.4352 38.4752 26.656 38.814 27.0381L38.9497 27.2119L39.021 27.3252C39.1782 27.5959 39.2612 27.9041 39.2612 28.2188V28.3975C39.2612 28.8097 39.1533 29.2149 38.9478 29.5723L36.5923 33.667C36.4958 33.8346 36.3842 33.9929 36.2583 34.1396C35.669 34.8266 34.8089 35.2216 33.9038 35.2217H26.6118C26.3392 35.2218 26.0752 35.3177 25.8657 35.4922C25.769 35.5727 25.6858 35.6683 25.6196 35.7754L21.7456 42.0479L21.5415 42.4453C21.4193 42.6828 21.355 42.9458 21.355 43.2129C21.355 43.5035 21.4312 43.7893 21.5747 44.042L23.3853 47.2305L23.3882 47.2354L24.1841 48.6533L24.2993 48.8213C24.5181 49.1401 24.6362 49.5176 24.6362 49.9043C24.6362 50.5924 24.2671 51.2236 23.6782 51.5635L23.5571 51.627C23.2966 51.7535 23.0104 51.8203 22.7202 51.8203H9.0542C8.15893 51.8201 7.42219 51.1395 7.3335 50.2676L7.32471 50.0908L7.33936 49.8643C7.36887 49.6404 7.44269 49.4235 7.55615 49.2266L19.6519 28.2354L19.6753 28.1943L19.7017 28.1553L20.063 27.6289C20.3029 27.2793 20.6298 26.9978 21.0112 26.8125C21.3379 26.6539 21.696 26.5705 22.0591 26.5674L37.4673 26.4395Z" fill="#D4AF37" stroke="#353535" stroke-width="2.41161"/>
<path d="M16.2705 19.8086C16.7774 19.8753 17.2312 20.1702 17.4971 20.6162L20.0898 24.9658C20.3815 25.4552 20.5351 26.0143 20.5352 26.584C20.5352 27.1385 20.3893 27.6837 20.1123 28.1641L7.73047 49.6348L7.72949 49.6338C7.47192 50.0804 6.99605 50.3564 6.48047 50.3564C5.80472 50.3564 5.1779 50.0034 4.82715 49.4258L2.1416 45.002C1.86661 44.549 1.72074 44.0289 1.7207 43.499C1.7207 42.9866 1.85717 42.4827 2.11523 42.04L14.5957 20.6299L14.7197 20.4453C15.0361 20.0376 15.5265 19.7939 16.0508 19.7939L16.2705 19.8086Z" fill="#D4AF37" stroke="#353535" stroke-width="2.41161"/>
<path d="M33.3066 18.3232C34.2254 18.3232 35.1144 18.6501 35.8145 19.2451C36.1478 19.5285 36.4309 19.8662 36.6514 20.2441L38.6045 23.5928C38.8045 23.9357 38.9102 24.3257 38.9102 24.7227V24.9277C38.91 25.6611 38.4907 26.3299 37.8311 26.6504C37.5703 26.7771 37.2841 26.8427 36.9941 26.8428H22.5156C22.2188 26.8427 21.924 26.7965 21.6416 26.7051C20.997 26.4963 20.4475 26.0642 20.0938 25.4863L17.749 21.6543C17.4064 21.0945 17.2246 20.4512 17.2246 19.7949C17.2246 18.9823 17.8837 18.3232 18.6963 18.3232H33.3066Z" fill="#D4AF37" stroke="#353535" stroke-width="2.41161"/>
<path d="M21.4925 45.0228C21.0007 44.1951 20.8337 43.2234 21.0233 42.2918C21.1101 41.865 21.2702 41.4562 21.4961 41.083L23.6104 37.5914C23.8154 37.2528 24.1066 36.9717 24.4556 36.776L24.6703 36.6556C25.3084 36.2977 26.1026 36.3234 26.7246 36.7223C26.9842 36.8888 27.2008 37.1127 27.3568 37.3752L34.9311 50.1194C35.09 50.3868 35.2038 50.6775 35.2675 50.9796C35.408 51.6471 35.298 52.3393 34.9583 52.9282L32.6009 57.0139C32.265 57.5962 31.7757 58.0789 31.1829 58.4114C30.4652 58.8139 29.5422 58.5667 29.1217 57.8593L21.4925 45.0228Z" fill="#D4AF37" stroke="#353535" stroke-width="2.41161"/>
<path d="M56.7095 26.4365C56.7723 26.4365 56.8355 26.4393 56.8979 26.4453L57.0845 26.4727L57.2534 26.5137C58.0864 26.7533 58.6722 27.5178 58.6724 28.3984V28.4756C58.6724 28.8387 58.5757 29.1959 58.3931 29.5098L56.7368 32.3535L54.5503 36.2051L54.5464 36.2129L54.5415 36.2207L52.3608 39.9248L52.3618 39.9258L51.2007 41.957C50.9934 42.3195 50.7227 42.6419 50.4019 42.9092C49.7727 43.4331 48.9794 43.7197 48.1606 43.7197H43.2407C42.814 43.7197 42.3981 43.5843 42.0532 43.333C41.5325 42.9534 41.2241 42.3475 41.2241 41.7031V41.6865C41.2241 41.315 41.325 40.9495 41.5161 40.6309L49.4419 27.415L49.5415 27.2637C49.7909 26.9219 50.143 26.6665 50.5483 26.5352C50.7488 26.4702 50.9587 26.4365 51.1694 26.4365H56.7095Z" fill="#D4AF37" stroke="#353535" stroke-width="2.41161"/>
<path d="M56.7095 26.4365C56.7723 26.4365 56.8355 26.4393 56.8979 26.4453L57.0845 26.4727L57.2534 26.5137C58.0864 26.7533 58.6722 27.5178 58.6724 28.3984V28.4756C58.6724 28.8387 58.5757 29.1959 58.3931 29.5098L56.7368 32.3535L54.5503 36.2051L54.5464 36.2129L54.5415 36.2207L52.3608 39.9248L52.3618 39.9258L51.2007 41.957C50.9934 42.3195 50.7227 42.6419 50.4019 42.9092C49.7727 43.4331 48.9794 43.7197 48.1606 43.7197H43.2407C42.814 43.7197 42.3981 43.5843 42.0532 43.333C41.5325 42.9534 41.2241 42.3475 41.2241 41.7031V41.6865C41.2241 41.315 41.325 40.9495 41.5161 40.6309L49.4419 27.415L49.5415 27.2637C49.7909 26.9219 50.143 26.6665 50.5483 26.5352C50.7488 26.4702 50.9587 26.4365 51.1694 26.4365H56.7095Z" fill="#D4AF37" stroke="#353535" stroke-width="2.41161"/>
<path d="M84.2148 36.8164V18.9291H77.1606V14.7722H96.3706V18.9291H89.3164V36.8164H84.2148ZM104.668 37.0683C102.736 37.0683 101.036 36.6904 99.5663 35.9346C98.1176 35.1788 96.9944 34.1501 96.1966 32.8484C95.3989 31.5258 95 30.0247 95 28.3451C95 26.6446 95.3884 25.1435 96.1652 23.8418C96.9629 22.5192 98.0442 21.4904 99.4088 20.7556C100.773 19.9998 102.317 19.6219 104.038 19.6219C105.697 19.6219 107.187 19.9788 108.51 20.6926C109.854 21.3855 110.914 22.3932 111.691 23.7158C112.467 25.0175 112.856 26.5816 112.856 28.4081C112.856 28.5971 112.845 28.8175 112.824 29.0694C112.803 29.3004 112.782 29.5208 112.761 29.7308H98.9994V26.865H110.179L108.289 27.7153C108.289 26.8335 108.111 26.0672 107.754 25.4164C107.397 24.7656 106.904 24.2617 106.274 23.9048C105.644 23.5269 104.909 23.3379 104.07 23.3379C103.23 23.3379 102.484 23.5269 101.834 23.9048C101.204 24.2617 100.71 24.7761 100.354 25.4479C99.9966 26.0987 99.8182 26.8755 99.8182 27.7783V28.5341C99.8182 29.4578 100.018 30.2766 100.417 30.9904C100.836 31.6833 101.414 32.2186 102.149 32.5965C102.904 32.9534 103.786 33.1319 104.794 33.1319C105.697 33.1319 106.484 32.9954 107.156 32.7225C107.849 32.4496 108.478 32.0402 109.045 31.4943L111.659 34.3286C110.882 35.2103 109.906 35.8926 108.73 36.3755C107.555 36.8374 106.201 37.0683 104.668 37.0683ZM123.527 37.0683C121.701 37.0683 120.073 36.7009 118.646 35.9661C117.218 35.2103 116.095 34.1711 115.276 32.8484C114.478 31.5258 114.08 30.0247 114.08 28.3451C114.08 26.6446 114.478 25.1435 115.276 23.8418C116.095 22.5192 117.218 21.4904 118.646 20.7556C120.073 19.9998 121.701 19.6219 123.527 19.6219C125.312 19.6219 126.865 19.9998 128.188 20.7556C129.51 21.4904 130.487 22.5507 131.117 23.9363L127.306 25.9833C126.865 25.1855 126.309 24.5976 125.637 24.2197C124.986 23.8418 124.272 23.6529 123.496 23.6529C122.656 23.6529 121.9 23.8418 121.228 24.2197C120.556 24.5976 120.021 25.133 119.622 25.8258C119.244 26.5186 119.055 27.3584 119.055 28.3451C119.055 29.3319 119.244 30.1717 119.622 30.8645C120.021 31.5573 120.556 32.0926 121.228 32.4705C121.9 32.8484 122.656 33.0374 123.496 33.0374C124.272 33.0374 124.986 32.8589 125.637 32.502C126.309 32.1241 126.865 31.5258 127.306 30.707L131.117 32.7855C130.487 34.1501 129.51 35.2103 128.188 35.9661C126.865 36.7009 125.312 37.0683 123.527 37.0683ZM143.363 19.6219C144.707 19.6219 145.904 19.8949 146.953 20.4407C148.024 20.9656 148.864 21.7844 149.473 22.8971C150.082 23.9888 150.386 25.3954 150.386 27.117V36.8164H145.473V27.8728C145.473 26.5081 145.169 25.5004 144.56 24.8495C143.972 24.1987 143.132 23.8733 142.041 23.8733C141.264 23.8733 140.561 24.0413 139.931 24.3772C139.322 24.6921 138.839 25.1855 138.482 25.8573C138.146 26.5291 137.978 27.3899 137.978 28.4396V36.8164H133.066V13.4495H137.978V24.5661L136.876 23.149C137.485 22.0153 138.356 21.144 139.49 20.5352C140.624 19.9263 141.915 19.6219 143.363 19.6219ZM173.079 37.1943C171.379 37.1943 169.794 36.9214 168.324 36.3755C166.875 35.8087 165.616 35.0109 164.545 33.9822C163.474 32.9534 162.635 31.7462 162.026 30.3606C161.438 28.975 161.144 27.4529 161.144 25.7943C161.144 24.1357 161.438 22.6136 162.026 21.228C162.635 19.8424 163.474 18.6352 164.545 17.6065C165.637 16.5777 166.907 15.7904 168.356 15.2446C169.804 14.6777 171.389 14.3943 173.111 14.3943C175.021 14.3943 176.743 14.7302 178.275 15.402C179.829 16.0529 181.131 17.0186 182.18 18.2993L178.905 21.3225C178.149 20.4617 177.31 19.8214 176.386 19.4015C175.462 18.9606 174.454 18.7402 173.363 18.7402C172.334 18.7402 171.389 18.9081 170.528 19.244C169.668 19.5799 168.922 20.0628 168.293 20.6926C167.663 21.3225 167.169 22.0678 166.812 22.9286C166.477 23.7893 166.309 24.7446 166.309 25.7943C166.309 26.844 166.477 27.7993 166.812 28.66C167.169 29.5208 167.663 30.2661 168.293 30.896C168.922 31.5258 169.668 32.0087 170.528 32.3446C171.389 32.6805 172.334 32.8484 173.363 32.8484C174.454 32.8484 175.462 32.6385 176.386 32.2186C177.31 31.7777 178.149 31.1164 178.905 30.2346L182.18 33.2578C181.131 34.5385 179.829 35.5147 178.275 36.1866C176.743 36.8584 175.011 37.1943 173.079 37.1943ZM184.492 36.8164V13.4495H189.405V36.8164H184.492ZM200.325 37.0683C198.919 37.0683 197.659 36.7954 196.546 36.2496C195.455 35.7037 194.604 34.8744 193.995 33.7617C193.387 32.628 193.082 31.1899 193.082 29.4473V19.8739H197.995V28.723C197.995 30.1297 198.289 31.1689 198.877 31.8407C199.485 32.4915 200.336 32.817 201.427 32.817C202.183 32.817 202.855 32.6595 203.443 32.3446C204.031 32.0087 204.493 31.5048 204.829 30.833C205.164 30.1402 205.332 29.2794 205.332 28.2507V19.8739H210.245V36.8164H205.584V32.1556L206.435 33.5098C205.868 34.6855 205.028 35.5777 203.915 36.1866C202.824 36.7744 201.627 37.0683 200.325 37.0683ZM224.024 37.0683C222.533 37.0683 221.252 36.7534 220.182 36.1236C219.111 35.4938 218.292 34.5385 217.725 33.2578C217.158 31.9562 216.875 30.3186 216.875 28.3451C216.875 26.3507 217.169 24.7131 217.757 23.4324C218.366 22.1518 219.205 21.1965 220.276 20.5667C221.347 19.9368 222.596 19.6219 224.024 19.6219C225.619 19.6219 227.047 19.9788 228.306 20.6926C229.587 21.4065 230.595 22.4142 231.33 23.7158C232.085 25.0175 232.463 26.5606 232.463 28.3451C232.463 30.1087 232.085 31.6413 231.33 32.9429C230.595 34.2446 229.587 35.2628 228.306 35.9976C227.047 36.7114 225.619 37.0683 224.024 37.0683ZM214.009 36.8164V13.4495H218.922V23.3065L218.607 28.3136L218.701 33.3523V36.8164H214.009ZM223.173 33.0374C223.992 33.0374 224.716 32.8484 225.346 32.4705C225.997 32.0926 226.511 31.5573 226.889 30.8645C227.288 30.1507 227.488 29.3109 227.488 28.3451C227.488 27.3584 227.288 26.5186 226.889 25.8258C226.511 25.133 225.997 24.5976 225.346 24.2197C224.716 23.8418 223.992 23.6529 223.173 23.6529C222.354 23.6529 221.62 23.8418 220.969 24.2197C220.318 24.5976 219.804 25.133 219.426 25.8258C219.048 26.5186 218.859 27.3584 218.859 28.3451C218.859 29.3109 219.048 30.1507 219.426 30.8645C219.804 31.5573 220.318 32.0926 220.969 32.4705C221.62 32.8484 222.354 33.0374 223.173 33.0374Z" fill="white"/>
<path d="M83.859 54.4922V45.0447H88.1508C89.1766 45.0447 90.0808 45.2426 90.8636 45.6385C91.6464 46.0254 92.2583 46.5698 92.6992 47.2716C93.14 47.9734 93.3605 48.8057 93.3605 49.7684C93.3605 50.7222 93.14 51.5545 92.6992 52.2653C92.2583 52.9671 91.6464 53.5159 90.8636 53.9118C90.0808 54.2987 89.1766 54.4922 88.1508 54.4922H83.859ZM86.0454 52.6972H88.0429C88.6727 52.6972 89.2171 52.5802 89.6759 52.3463C90.1438 52.1033 90.5037 51.7614 90.7557 51.3205C91.0166 50.8796 91.1471 50.3623 91.1471 49.7684C91.1471 49.1656 91.0166 48.6482 90.7557 48.2163C90.5037 47.7755 90.1438 47.438 89.6759 47.2041C89.2171 46.9612 88.6727 46.8397 88.0429 46.8397H86.0454V52.6972ZM94.3345 54.4922V45.0447H98.424C99.2697 45.0447 99.9986 45.1841 100.61 45.4631C101.222 45.733 101.695 46.1244 102.028 46.6372C102.36 47.1501 102.527 47.762 102.527 48.4728C102.527 49.1746 102.36 49.7819 102.028 50.2948C101.695 50.8077 101.222 51.2036 100.61 51.4825C99.9986 51.7524 99.2697 51.8874 98.424 51.8874H95.5492L96.521 50.9021V54.4922H94.3345ZM96.521 51.1451L95.5492 50.1058H98.3025C98.9773 50.1058 99.4812 49.9619 99.8141 49.674C100.147 49.386 100.313 48.9856 100.313 48.4728C100.313 47.9509 100.147 47.546 99.8141 47.2581C99.4812 46.9702 98.9773 46.8262 98.3025 46.8262H95.5492L96.521 45.787V51.1451ZM106.649 54.6541C105.893 54.6541 105.169 54.5552 104.476 54.3572C103.783 54.1503 103.225 53.8848 102.803 53.5609L103.545 51.9144C103.95 52.2023 104.427 52.4407 104.975 52.6297C105.533 52.8096 106.096 52.8996 106.663 52.8996C107.094 52.8996 107.441 52.8591 107.702 52.7781C107.972 52.6882 108.17 52.5667 108.296 52.4137C108.422 52.2608 108.485 52.0853 108.485 51.8874C108.485 51.6354 108.386 51.4375 108.188 51.2935C107.99 51.1406 107.729 51.0191 107.405 50.9291C107.081 50.8301 106.721 50.7402 106.325 50.6592C105.938 50.5692 105.547 50.4612 105.151 50.3353C104.764 50.2093 104.409 50.0474 104.085 49.8494C103.761 49.6515 103.495 49.3905 103.288 49.0666C103.09 48.7427 102.991 48.3288 102.991 47.8249C102.991 47.2851 103.135 46.7947 103.423 46.3538C103.72 45.9039 104.161 45.5485 104.746 45.2876C105.34 45.0177 106.082 44.8827 106.973 44.8827C107.567 44.8827 108.152 44.9547 108.727 45.0987C109.303 45.2336 109.812 45.4406 110.253 45.7195L109.578 47.3796C109.137 47.1276 108.696 46.9432 108.255 46.8262C107.814 46.7002 107.382 46.6372 106.959 46.6372C106.537 46.6372 106.19 46.6867 105.92 46.7857C105.65 46.8847 105.457 47.0152 105.34 47.1771C105.223 47.3301 105.164 47.51 105.164 47.717C105.164 47.9599 105.263 48.1579 105.461 48.3108C105.659 48.4548 105.92 48.5717 106.244 48.6617C106.568 48.7517 106.923 48.8417 107.31 48.9316C107.706 49.0216 108.098 49.1251 108.485 49.2421C108.88 49.359 109.24 49.5165 109.564 49.7144C109.888 49.9124 110.149 50.1733 110.347 50.4972C110.554 50.8212 110.657 51.2305 110.657 51.7254C110.657 52.2563 110.509 52.7421 110.212 53.183C109.915 53.6239 109.47 53.9793 108.876 54.2493C108.291 54.5192 107.549 54.6541 106.649 54.6541ZM111.477 54.4922V45.0447H115.566C116.412 45.0447 117.141 45.1841 117.752 45.4631C118.364 45.733 118.837 46.1244 119.17 46.6372C119.503 47.1501 119.669 47.762 119.669 48.4728C119.669 49.1746 119.503 49.7819 119.17 50.2948C118.837 50.7987 118.364 51.1856 117.752 51.4555C117.141 51.7254 116.412 51.8604 115.566 51.8604H112.691L113.663 50.9021V54.4922H111.477ZM117.483 54.4922L115.121 51.0641H117.456L119.844 54.4922H117.483ZM113.663 51.1451L112.691 50.1193H115.445C116.119 50.1193 116.623 49.9754 116.956 49.6874C117.289 49.3905 117.456 48.9856 117.456 48.4728C117.456 47.9509 117.289 47.546 116.956 47.2581C116.623 46.9702 116.119 46.8262 115.445 46.8262H112.691L113.663 45.787V51.1451ZM120.726 54.4922V45.0447H124.816C125.662 45.0447 126.39 45.1841 127.002 45.4631C127.614 45.733 128.087 46.1244 128.419 46.6372C128.752 47.1501 128.919 47.762 128.919 48.4728C128.919 49.1746 128.752 49.7819 128.419 50.2948C128.087 50.8077 127.614 51.2036 127.002 51.4825C126.39 51.7524 125.662 51.8874 124.816 51.8874H121.941L122.913 50.9021V54.4922H120.726ZM122.913 51.1451L121.941 50.1058H124.694C125.369 50.1058 125.873 49.9619 126.206 49.674C126.539 49.386 126.705 48.9856 126.705 48.4728C126.705 47.9509 126.539 47.546 126.206 47.2581C125.873 46.9702 125.369 46.8262 124.694 46.8262H121.941L122.913 45.787V51.1451ZM131.762 52.3328L131.64 49.8089L136.162 45.0447H138.591L134.515 49.431L133.3 50.7267L131.762 52.3328ZM129.805 54.4922V45.0447H131.978V54.4922H129.805ZM136.27 54.4922L132.909 50.3758L134.34 48.8237L138.821 54.4922H136.27Z" fill="white"/>
<path d="M82.7388 56.1792H138.672V56.8541H82.7388V56.1792Z" fill="white"/>
</svg>
